<svg viewBox="0 0 601 258" xmlns="http://www.w3.org/2000/svg" fill-rule="evenodd" clip-rule="evenodd"><g transform="scale(.99668 1.00604)"><path fill="none" d="M0 0h603v255.5H0z"/><clipPath id="prefix__a"><path d="M0 0h603v255.5H0z"/></clipPath><g clip-path="url(#prefix__a)"><path fill="none" d="M0 0h604.189v257.759H0z"/><g transform="matrix(.93383 0 0 .65755 -.582 -1)"><clipPath id="prefix__b"><path d="M0 0h647v392H0z"/></clipPath><g clip-path="url(#prefix__b)"><path d="M114.47 624.8H284.8c23.906 0 41.835-17.929 41.835-41.835V68.985c0-23.906-17.929-41.835-41.835-41.835H114.47c-23.906 0-41.835 17.929-41.835 41.835v513.98c0 23.906 17.929 41.835 41.835 41.835z" fill="#faffff" fill-rule="nonzero" stroke="#000" stroke-width="3" transform="matrix(0 -1.51167 1.07442 0 -26.936 497.553)"/><path d="M242.89 325.67c0 23.944-19.433 43.378-43.378 43.378-23.944 0-43.378-19.433-43.378-43.378 0-23.944 19.433-43.378 43.378-43.378 23.944 0 43.378 19.433 43.378 43.378z" fill="none" stroke="#0039a6" stroke-width="1.5" transform="matrix(0 -1.51167 1.07442 0 -26.936 497.553)"/><path d="M72.631 325.96l254 .015" fill="none" stroke="#c60c30" stroke-width="5" transform="matrix(0 -1.51167 1.07442 0 -26.936 497.553)"/><path d="M76.873 396.44h254M76.873 247.03h254" fill="none" stroke="#0039a6" stroke-width="5" transform="matrix(0 -1.51167 1.07442 0 -22.377 503.968)"/><path d="M194.44 55.847c-1.34-3.031-1.34-7.116 0-9.85h18.765c1.34 1.989 1.34 7.009 0 9.85H194.44zM194.44 587.62c-1.34 3.031-1.34 7.116 0 9.85h18.765c1.34-1.989 1.34-7.008 0-9.85H194.44z" fill="#eceeee" stroke="#c60c30" stroke-width="1.5" transform="matrix(0 -1.51167 1.07442 0 -22.377 503.968)"/><path d="M191.92 587.69v-13.494s4.498-4.436 11.922-4.436c7.549 0 11.984 4.436 11.984 4.436v13.494H191.92M191.92 55.778v13.494s4.498 4.436 11.922 4.436c7.549 0 11.984-4.436 11.984-4.436V55.778H191.92" fill="#3db7e4" stroke="#c60c30" stroke-width="1.5" transform="matrix(0 -1.51167 1.07442 0 -22.377 503.968)"/><path d="M177.22 124.24h8.965M177.22 115.26h8.965M72.631 60.021h254M72.631 591.93h254M308.49 534.32c0 23.944-19.433 43.378-43.378 43.378-23.944 0-43.378-19.433-43.378-43.378 0-23.944 19.433-43.378 43.378-43.378 23.944 0 43.378 19.433 43.378 43.378zM122.22 526.19h8.965v-11.953M145.56 526.19h-8.965v-11.953M122.22 538.14h8.965v11.953M145.56 538.14h-8.965v11.953" fill="none" stroke="#c60c30" stroke-width="1.5" transform="matrix(0 -1.51167 1.07442 0 -26.936 497.553)"/><path d="M253.7 526.19h8.965v-11.953M277.05 526.19h-8.965v-11.953M253.7 538.14h8.965v11.953M277.05 538.14h-8.965v11.953M253.7 113.81h8.965v-11.953M277.05 113.81h-8.965v-11.953M253.7 125.76h8.965v11.953M277.05 125.76h-8.965v11.953M122.22 113.81h8.965v-11.953M145.56 113.81h-8.965v-11.953M122.22 125.76h8.965v11.953M145.56 125.76h-8.965v11.953M81.595 527.67h8.965M81.595 536.65h8.965M177.22 527.67h8.965M177.22 536.65h8.965M81.595 115.26h8.965M81.595 124.24h8.965M213.08 115.26h8.965M213.08 124.24h8.965M308.7 115.26h8.965M308.7 124.24h8.965M213.08 527.67h8.965M213.08 536.65h8.965M308.7 527.67h8.965M308.7 536.65h8.965M177.03 532.16c0 23.944-19.433 43.378-43.378 43.378-23.944 0-43.378-19.433-43.378-43.378 0-23.944 19.433-43.378 43.378-43.378 23.944 0 43.378 19.433 43.378 43.378z" fill="none" stroke="#c60c30" stroke-width="1.5" transform="matrix(0 -1.51167 1.07442 0 -26.936 497.553)"/><path d="M308.62 534.06c0 23.944-19.433 43.378-43.378 43.378-23.944 0-43.378-19.433-43.378-43.378 0-23.944 19.433-43.378 43.378-43.378 23.944 0 43.378 19.433 43.378 43.378zM308.17 119.33c0 23.944-19.433 43.378-43.378 43.378-23.944 0-43.378-19.433-43.378-43.378 0-23.944 19.433-43.378 43.378-43.378 23.944 0 43.378 19.433 43.378 43.378zM177.33 120.08c0 23.944-19.433 43.378-43.378 43.378-23.944 0-43.378-19.433-43.378-43.378 0-23.944 19.433-43.378 43.378-43.378 23.944 0 43.378 19.433 43.378 43.378zM72.502 295.76c16.495 0 29.882 13.387 29.882 29.882s-13.387 29.882-29.882 29.882V295.76z" fill="none" stroke="#c60c30" stroke-width="1.5" transform="matrix(0 -1.51167 1.07442 0 -26.936 497.553)"/><path d="M544.848 299.808c.968 0 1.838-.596 2.434-1.54v-6.076c-.596-.945-1.466-1.54-2.434-1.54-.97 0-1.839.597-2.435 1.542v6.072c.596.945 1.465 1.542 2.435 1.542z" fill="#c60c30" fill-rule="nonzero"/><path d="M-112.44 132.8c0 73.606-59.669 133.28-133.28 133.28-73.606 0-133.28-59.669-133.28-133.28C-379 59.194-319.331-.48-245.72-.48c73.606 0 133.28 59.669 133.28 133.28z" fill="none" stroke="#c60c30" stroke-width="22.96" transform="matrix(-.0234 0 0 -.03292 539.096 299.595)"/><path d="M544.698 100.84c.968 0 1.838-.595 2.435-1.54v-6.076c-.597-.944-1.467-1.54-2.435-1.54-.97 0-1.838.597-2.435 1.542v6.072c.597.945 1.466 1.542 2.435 1.542z" fill="#c60c30" fill-rule="nonzero"/><path d="M-112.44 132.8c0 73.606-59.669 133.28-133.28 133.28-73.606 0-133.28-59.669-133.28-133.28C-379 59.194-319.331-.48-245.72-.48c73.606 0 133.28 59.669 133.28 133.28z" fill="none" stroke="#c60c30" stroke-width="22.96" transform="matrix(-.0234 0 0 -.03292 538.947 100.627)"/><path d="M387.46 101.025c.968 0 1.838-.595 2.434-1.54v-6.076c-.596-.944-1.466-1.54-2.434-1.54-.97 0-1.839.597-2.435 1.542v6.072c.596.945 1.466 1.542 2.435 1.542z" fill="#c60c30" fill-rule="nonzero"/><path d="M-112.44 132.8c0 73.606-59.669 133.28-133.28 133.28-73.606 0-133.28-59.669-133.28-133.28C-379 59.194-319.331-.48-245.72-.48c73.606 0 133.28 59.669 133.28 133.28z" fill="none" stroke="#c60c30" stroke-width="22.96" transform="matrix(-.0234 0 0 -.03292 381.709 100.812)"/><path d="M387.459 299.707c.968 0 1.838-.596 2.435-1.54v-6.076c-.597-.945-1.467-1.54-2.435-1.54-.97 0-1.838.597-2.435 1.542v6.072c.597.945 1.466 1.542 2.435 1.542z" fill="#c60c30" fill-rule="nonzero"/><path d="M-112.44 132.8c0 73.606-59.669 133.28-133.28 133.28-73.606 0-133.28-59.669-133.28-133.28C-379 59.194-319.331-.48-245.72-.48c73.606 0 133.28 59.669 133.28 133.28z" fill="none" stroke="#c60c30" stroke-width="22.96" transform="matrix(-.0234 0 0 -.03292 381.708 299.492)"/><path d="M258.99 299.521c.967 0 1.838-.595 2.434-1.54v-6.075c-.596-.945-1.467-1.54-2.435-1.54-.969 0-1.838.596-2.434 1.541v6.073c.596.944 1.465 1.541 2.434 1.541z" fill="#c60c30" fill-rule="nonzero"/><path d="M-112.44 132.8c0 73.606-59.669 133.28-133.28 133.28-73.606 0-133.28-59.669-133.28-133.28C-379 59.194-319.331-.48-245.72-.48c73.606 0 133.28 59.669 133.28 133.28z" fill="none" stroke="#c60c30" stroke-width="22.96" transform="matrix(-.0234 0 0 -.03292 253.238 299.308)"/><path d="M259.12 101.026c.968 0 1.839-.596 2.435-1.54V93.41c-.596-.945-1.467-1.54-2.435-1.54-.969 0-1.838.597-2.434 1.542v6.072c.596.945 1.465 1.542 2.434 1.542z" fill="#c60c30" fill-rule="nonzero"/><path d="M-112.44 132.8c0 73.606-59.669 133.28-133.28 133.28-73.606 0-133.28-59.669-133.28-133.28C-379 59.194-319.331-.48-245.72-.48c73.606 0 133.28 59.669 133.28 133.28z" fill="none" stroke="#c60c30" stroke-width="22.96" transform="matrix(-.0234 0 0 -.03292 253.369 100.813)"/><path d="M101.881 100.841c.968 0 1.838-.595 2.435-1.54v-6.076c-.597-.944-1.467-1.54-2.435-1.54-.969 0-1.838.597-2.435 1.542v6.072c.597.945 1.466 1.542 2.435 1.542z" fill="#c60c30" fill-rule="nonzero"/><path d="M-112.44 132.8c0 73.606-59.669 133.28-133.28 133.28-73.606 0-133.28-59.669-133.28-133.28C-379 59.194-319.331-.48-245.72-.48c73.606 0 133.28 59.669 133.28 133.28z" fill="none" stroke="#c60c30" stroke-width="22.96" transform="matrix(-.0234 0 0 -.03292 96.13 100.628)"/><path d="M101.62 299.706c.967 0 1.838-.595 2.434-1.54v-6.076c-.596-.944-1.467-1.54-2.435-1.54-.969 0-1.838.597-2.434 1.542v6.072c.596.945 1.465 1.542 2.434 1.542z" fill="#c60c30" fill-rule="nonzero"/><path d="M-112.44 132.8c.003.385.005.77.005 1.154 0 73.116-60.165 133.28-133.28 133.28-73.115 0-133.28-60.164-133.28-133.28 0-.384.002-.769.005-1.154-.003-.385-.005-.77-.005-1.154 0-73.116 60.165-133.28 133.28-133.28 73.115 0 133.28 60.164 133.28 133.28 0 .384-.002.769-.005 1.154z" fill="none" stroke="#c60c30" stroke-width="22.96" transform="matrix(-.0234 0 0 -.03292 95.867 299.493)"/><path d="M323.282 193.51c.89 0 1.612 1.017 1.612 2.268 0 1.252-.722 2.268-1.612 2.268-.89 0-1.611-1.016-1.611-2.268 0-1.251.722-2.267 1.611-2.267z" fill="#0039a6" fill-rule="nonzero"/><path d="M231.88 591.93h-64.5l-9 32.791h82.5l-9-32.791zM231.88 60.021h-64.5l-9-32.791h82.5l-9 32.791z" fill="none" stroke="#c60c30" stroke-width="1.5" stroke-linecap="square" transform="matrix(0 -1.51167 1.07442 0 -26.936 497.553)"/><path d="M114.47 624.8H284.8c23.906 0 41.835-17.929 41.835-41.835V68.985c0-23.906-17.929-41.835-41.835-41.835H114.47c-23.906 0-41.835 17.929-41.835 41.835v513.98c0 23.906 17.929 41.835 41.835 41.835z" fill="none" stroke="#000" stroke-width="3" transform="matrix(0 -1.51167 1.07442 0 -26.936 497.553)"/><path fill="#fff" d="M321.682 368.863v-4.535h3.223v4.535zM321.682 340.4v-4.535h3.223v4.535zM321.682 311.92v-4.535h3.223v4.535z"/><g><path fill="#fff" d="M321.682 283.455v-4.535h3.223v4.535z"/></g><g><path fill="#fff" d="M321.682 254.99v-4.535h3.223v4.535z"/></g><g><path fill="#fff" d="M321.682 226.51v-4.534h3.223v4.535z"/></g><g><path fill="#fff" d="M321.682 169.581v-4.535h3.223v4.535z"/></g><g><path fill="#fff" d="M321.682 112.636v-4.535h3.223v4.535z"/></g><g><path fill="#fff" d="M321.682 55.692v-4.535h3.223v4.535z"/></g><g><path fill="#fff" d="M321.682 27.227v-4.535h3.223v4.535z"/></g><g><path fill="#fff" d="M321.682 141.101v-4.535h3.223v4.535z"/></g><g><path fill="#fff" d="M321.682 84.172v-4.535h3.223v4.535z"/></g><g><path d="M187.68 581.61h1.488M210.09 581.61h1.488" fill="none" stroke="#c60c30" stroke-width="1.51" stroke-linecap="square" transform="matrix(0 -1.51167 1.07442 0 -576.791 497.55)"/></g><g><path d="M187.68 581.61h1.488M210.09 581.61h1.488" fill="none" stroke="#c60c30" stroke-width="1.51" stroke-linecap="square" transform="matrix(0 -1.51167 1.07442 0 -26.935 497.554)"/></g></g></g></g></g></svg>